<?xml version="1.0" encoding="UTF-8"?>
<svg id="Layer_2" data-name="Layer 2" xmlns="http://www.w3.org/2000/svg" xmlns:xlink="http://www.w3.org/1999/xlink" viewBox="0 0 1440.438 729.974">
  <defs>
    <style>
      .cls-1 {
        fill: url(#linear-gradient-5);
      }

      .cls-2 {
        fill: url(#linear-gradient-6);
      }

      .cls-3 {
        fill: url(#linear-gradient-4);
      }

      .cls-4 {
        fill: url(#linear-gradient-3);
      }

      .cls-5 {
        fill: url(#linear-gradient-2);
      }

      .cls-6 {
        fill: #62d4f9;
      }

      .cls-7 {
        fill: url(#linear-gradient);
      }

      .cls-8 {
        fill: #f0be7d;
      }

      .cls-9 {
        fill: #336ceb;
        fill-rule: evenodd;
      }

      .cls-10 {
        fill: #c06a97;
      }

      .cls-11 {
        fill: #317295;
      }

      .cls-12 {
        fill: #fff;
      }
    </style>
    <linearGradient id="linear-gradient" x1="1376.673" y1="2938.036" x2="1376.673" y2="3084.344" gradientTransform="translate(0 -2643.239)" gradientUnits="userSpaceOnUse">
      <stop offset="0" stop-color="#356bf5"/>
      <stop offset="1" stop-color="#b734f5"/>
    </linearGradient>
    <linearGradient id="linear-gradient-2" x1="1376.403" x2="1376.403" y2="3084.344" xlink:href="#linear-gradient"/>
    <linearGradient id="linear-gradient-3" x1="1376.388" y1="2973.082" x2="1376.388" y2="3035.555" gradientTransform="translate(0 -2643.239)" gradientUnits="userSpaceOnUse">
      <stop offset="0" stop-color="#82c4f9"/>
      <stop offset="1" stop-color="#dcacf9"/>
    </linearGradient>
    <linearGradient id="linear-gradient-4" x1="-965.888" y1="1021.653" x2="-965.888" y2="1004.191" gradientTransform="translate(8239.376 8173.22) scale(8 -8)" xlink:href="#linear-gradient"/>
    <linearGradient id="linear-gradient-5" x1="-962.788" y1="1020.032" x2="-962.788" y2="1005.771" gradientTransform="translate(8239.376 8173.22) scale(8 -8)" xlink:href="#linear-gradient-3"/>
    <linearGradient id="linear-gradient-6" x1="-968.683" y1="1018.087" x2="-968.683" y2="1008.161" gradientTransform="translate(8239.376 8173.22) scale(8 -8)" xlink:href="#linear-gradient-3"/>
  </defs>
  <g id="computer">
    <g id="Internet_375" data-name="Internet 375">
      <path class="cls-8" d="M1187.943,624.269c-5.348,2.673-7.665,7.665-7.665,21.215,0,0,2.673-2.673,6.952-4.279,3.121-1.158,5.348-2.673,6.952-3.834,4.635-3.477,5.348-7.665,5.348-14.976-.089,0-7.397-.445-11.587,1.871v.003Z"/>
      <path class="cls-12" d="M1155.23,627.389c-4.636,3.834-5.794,10.429-5.794,10.429l-14.976,57.405-12.3-46.976c-1.158-4.992-3.477-11.142-6.952-15.421-4.279-5.437-13.191-5.794-14.263-5.794-.802,0-9.627.356-14.263,5.794-3.477,4.279-5.794,10.429-6.952,15.421l-11.587,46.976-14.976-57.408s-1.158-6.15-5.794-10.429c-7.308-6.596-18.094-4.989-18.094-4.989l28.523,107.411s9.271.802,13.907-1.515c6.15-3.121,9.271-5.348,12.746-20.057,3.477-13.102,12.746-51.253,13.458-53.928.356-1.158,1.158-4.636,3.477-4.636s3.121,3.121,3.477,4.636c.802,2.673,9.984,40.826,13.458,53.928,3.834,14.619,6.506,16.936,12.746,20.057,4.636,2.316,13.907,1.515,13.907,1.515l28.348-107.411s-10.786-1.515-18.094,4.992h-.003ZM1199.444,639.69s-1.96,2.673-5.794,4.992c-2.673,1.515-4.992,2.316-7.665,3.834-4.636,2.316-5.794,4.636-5.794,8.113v72.824s7.308.802,11.944-1.515c6.15-3.121,7.308-6.15,7.308-19.255v-68.993ZM1270.308,676.326l36.188-53.572s-14.976-2.673-22.729,4.279c-4.992,4.279-9.984,12.3-9.984,12.3l-13.102,19.255c-.802,1.158-1.515,1.96-2.673,1.96s-2.316-1.158-2.673-1.96l-13.102-19.255s-5.348-7.665-9.984-12.3c-7.665-6.952-22.729-4.279-22.729-4.279l35.03,53.483-35.834,53.483s15.777,1.96,23.531-4.992c4.992-4.279,9.627-11.587,9.627-11.587l13.102-19.255c.802-1.158,1.515-1.96,2.673-1.96s2.316,1.158,2.673,1.96l13.102,19.255s4.992,7.308,9.627,11.587c7.665,6.952,23.086,4.992,23.086,4.992l-35.834-53.393h.005Z"/>
    </g>
    <g id="Internet_375-2" data-name="Internet 375">
      <path class="cls-9" d="M143.046,125.094l-45.644,89.231h-42.873l19.103-36.981h-.857c-15.758,20.455-39.272,33.922-72.774,36.981v-36.469s21.432-1.266,34.032-14.512H0v-38.247h38.247v31.457l.857-.004,15.63-31.453h28.926v31.258h.857l16.217-31.261h42.311Z"/>
    </g>
    <g id="Internet_375-3" data-name="Internet 375">
      <path id="REACT" class="cls-6" d="M271.456,630.424c-1.662-.57-3.338-1.099-5.027-1.585.284-1.159.545-2.304.776-3.429,3.805-18.474,1.318-33.356-7.18-38.256-8.148-4.697-21.472.201-34.929,11.912-1.327,1.157-2.623,2.345-3.889,3.568-.847-.812-1.71-1.609-2.588-2.389-14.102-12.523-28.24-17.802-36.728-12.887-8.14,4.712-10.55,18.703-7.124,36.211.34,1.734.726,3.46,1.154,5.173-2.001.569-3.931,1.173-5.779,1.818-16.536,5.765-27.096,14.799-27.096,24.17,0,9.678,11.337,19.387,28.558,25.274,1.396.476,2.805.915,4.223,1.32-.46,1.846-.869,3.706-1.226,5.575-3.266,17.204-.716,30.864,7.403,35.547,8.385,4.835,22.458-.134,36.161-12.113,1.111-.974,2.198-1.975,3.258-3.003,1.371,1.323,2.779,2.607,4.222,3.852,13.273,11.422,26.383,16.034,34.493,11.339,8.377-4.85,11.099-19.524,7.565-37.378-.279-1.399-.591-2.79-.936-4.174.988-.293,1.959-.594,2.904-.908,17.905-5.931,29.554-15.522,29.554-25.331,0-9.405-10.901-18.501-27.769-24.308h.001ZM267.573,673.729c-.854.282-1.73.556-2.623.82-1.977-6.258-4.645-12.911-7.908-19.786,3.115-6.71,5.68-13.28,7.601-19.496,1.598.463,3.147.95,4.643,1.465,14.453,4.976,23.268,12.331,23.268,17.999,0,6.037-9.521,13.876-24.98,18.997h-.001ZM261.159,686.439c1.563,7.894,1.786,15.032.75,20.613-.93,5.015-2.801,8.357-5.114,9.696-4.922,2.85-15.447-.854-26.798-10.622-1.342-1.157-2.651-2.351-3.928-3.581,4.401-4.813,8.799-10.408,13.092-16.622,7.551-.67,14.683-1.765,21.152-3.261.312,1.252.593,2.512.846,3.778h0ZM196.291,716.256c-4.808,1.698-8.639,1.747-10.954.411-4.927-2.841-6.975-13.81-4.18-28.522.333-1.738.712-3.467,1.14-5.185,6.397,1.416,13.478,2.433,21.046,3.047,4.322,6.081,8.847,11.669,13.407,16.564-.97.937-1.961,1.852-2.975,2.74-6.06,5.297-12.132,9.054-17.483,10.945h-.001ZM173.763,673.692c-7.615-2.603-13.905-5.986-18.216-9.677-3.873-3.316-5.829-6.611-5.829-9.283,0-5.688,8.478-12.941,22.619-17.871,1.716-.598,3.512-1.162,5.376-1.692,1.955,6.357,4.518,13.004,7.611,19.724-3.133,6.821-5.734,13.574-7.708,20.005-1.295-.371-2.58-.774-3.854-1.207h.001ZM181.315,622.286c-2.935-15-.986-26.315,3.92-29.155,5.225-3.025,16.778,1.288,28.955,12.101.794.707,1.576,1.427,2.343,2.162-4.537,4.873-9.021,10.42-13.304,16.465-7.346.681-14.376,1.774-20.841,3.239-.398-1.595-.757-3.199-1.074-4.812h.001ZM248.684,638.922c-1.527-2.637-3.11-5.242-4.749-7.811,4.984.631,9.757,1.466,14.24,2.489-1.346,4.314-3.024,8.825-4.998,13.449-1.443-2.739-2.941-5.448-4.494-8.127h0ZM221.211,612.164c3.077,3.334,6.16,7.056,9.191,11.094-6.149-.29-12.309-.291-18.459-.004,3.034-4.001,6.143-7.719,9.268-11.092h0ZM193.562,638.967c-1.532,2.658-3.002,5.35-4.409,8.076-1.942-4.608-3.605-9.139-4.962-13.514,4.456-.997,9.208-1.812,14.159-2.431-1.657,2.585-3.253,5.208-4.788,7.868h-.001ZM198.492,678.838c-5.115-.571-9.939-1.344-14.394-2.315,1.378-4.454,3.078-9.081,5.062-13.788,1.412,2.728,2.888,5.422,4.428,8.081,1.582,2.734,3.221,5.41,4.904,8.02h0ZM221.394,697.768c-3.163-3.412-6.317-7.186-9.397-11.245,2.99.117,6.04.177,9.138.177,3.184,0,6.33-.071,9.427-.209-3.042,4.133-6.112,7.913-9.168,11.277ZM253.239,662.496c2.088,4.758,3.848,9.361,5.244,13.739-4.528,1.033-9.417,1.866-14.568,2.483,1.65-2.616,3.249-5.266,4.794-7.947,1.571-2.725,3.082-5.484,4.53-8.276ZM242.93,667.438c-2.366,4.109-4.865,8.141-7.493,12.088-4.761.337-9.53.504-14.302.502-4.86,0-9.588-.151-14.14-.446-2.696-3.938-5.243-7.976-7.633-12.108h0c-2.38-4.109-4.603-8.306-6.664-12.584,2.055-4.278,4.272-8.478,6.643-12.59h0c2.371-4.112,4.897-8.134,7.573-12.055,4.645-.352,9.408-.534,14.221-.534h0c4.835,0,9.605.184,14.248.539,2.648,3.916,5.159,7.924,7.525,12.015,2.379,4.103,4.625,8.282,6.733,12.531-2.086,4.292-4.325,8.509-6.71,12.642h-.001ZM256.694,592.934c5.23,3.016,7.263,15.179,3.978,31.129-.21,1.017-.445,2.054-.701,3.105-6.481-1.496-13.516-2.609-20.882-3.3-4.291-6.111-8.738-11.667-13.202-16.476,1.17-1.128,2.367-2.226,3.592-3.294,11.53-10.034,22.307-13.995,27.217-11.164h-.001ZM221.135,640.784c7.702,0,13.946,6.245,13.946,13.946s-6.245,13.946-13.946,13.946-13.946-6.245-13.946-13.946,6.245-13.946,13.946-13.946Z"/>
    </g>
    <g id="Internet_375-4" data-name="Internet 375">
      <g>
        <g>
          <path class="cls-12" d="M541.549,377.091c0,13.797,7.994,25.789,19.728,31.462l-16.763-45.646c-2.063,4.513-3.095,9.284-2.966,14.184ZM600.089,375.414c0-4.384-1.547-7.35-2.837-9.671-1.805-2.837-3.481-5.287-3.481-8.252s2.45-6.189,5.931-6.189.258,0,.516,0c-6.189-5.673-14.571-9.155-23.596-9.155s-22.952,6.318-29.27,15.731h2.192c3.61,0,9.284-.387,9.284-.387,1.934,0,2.063,2.708.258,2.837,0,0-1.934.258-3.997.387l12.765,37.909,7.608-22.952-5.416-14.957c-1.934,0-3.61-.387-3.61-.387-1.934,0-1.676-2.966.258-2.837,0,0,5.802.387,9.155.387s9.284-.387,9.284-.387c1.934,0,2.063,2.708.258,2.837,0,0-1.934.258-3.997.387l12.636,37.651,3.481-11.605c1.547-4.9,2.708-8.252,2.708-11.347h-.129Z"/>
          <path class="cls-12" d="M577.137,380.185l-10.444,30.559c3.224.903,6.576,1.418,9.929,1.418s7.994-.645,11.605-1.934c0-.129-.129-.258-.258-.516l-10.702-29.528h-.129ZM607.181,360.328c.129,1.16.258,2.321.258,3.61,0,3.61-.645,7.479-2.708,12.507l-10.702,30.946c10.444-6.06,17.407-17.278,17.407-30.302s-1.547-11.863-4.255-16.763h0Z"/>
          <path class="cls-12" d="M576.492,336.345c-22.436,0-40.746,18.31-40.746,40.746s18.31,40.746,40.746,40.746,40.746-18.31,40.746-40.746-18.181-40.746-40.746-40.746ZM576.492,416.031c-21.404,0-38.812-17.407-38.812-38.941s17.407-38.812,38.812-38.812,38.941,17.407,38.941,38.941-17.407,38.941-38.941,38.941v-.129Z"/>
        </g>
        <path class="cls-12" d="M779.964,393.208v1.547h-18.052v-1.547c5.287,0,6.189-1.289,6.189-9.284v-12.636c0-7.865-.903-9.155-6.189-9.155v-1.547h16.376c8.123,0,12.636,4.126,12.636,9.8s-4.513,9.671-12.636,9.671h-4.513v3.868c0,7.865.903,9.284,6.189,9.284h0ZM778.288,363.423h-4.513v13.797h4.513c4.384,0,6.447-3.095,6.447-6.834s-2.063-6.963-6.447-6.963h0ZM845.209,387.406l-.387,1.418c-.774,2.579-1.547,3.61-7.221,3.61h-1.16c-4.126,0-4.771-.903-4.771-6.576v-3.61c6.189,0,6.705.516,6.705,4.642h1.547v-11.734h-1.547c0,4.126-.516,4.642-6.705,4.642v-8.897h4.384c5.673,0,6.447.903,7.221,3.61l.387,1.547h1.289l-.516-7.479h-23.21v1.547c4.384,0,5.158.903,5.158,6.576v10.058c0,5.158-.645,6.447-4.126,6.576-3.353-.516-5.545-2.321-8.768-5.802l-3.61-3.997c4.9-.903,7.479-3.997,7.479-7.479s-3.739-7.608-10.702-7.608h-13.926v1.547c4.384,0,5.158.903,5.158,6.576v10.058c0,5.673-.774,6.705-5.158,6.705v1.547h15.731v-1.547c-4.384,0-5.158-1.032-5.158-6.705v-2.837h1.289l8.768,10.96h32.494l.516-7.479h-1.16v.129ZM803.302,381.346v-10.573h3.224c3.61,0,5.158,2.45,5.158,5.287s-1.547,5.158-5.158,5.158h-3.224v.129ZM861.327,395.787c-3.224,0-5.931-1.676-7.092-2.708-.387.387-1.16,1.547-1.289,2.708h-1.547v-10.96h1.547c.645,5.158,4.255,8.252,8.897,8.252s4.642-1.418,4.642-3.739-1.805-3.61-5.029-5.158l-4.513-2.192c-3.224-1.547-5.545-4.126-5.545-7.608s3.61-7.092,8.51-7.092,4.771.903,6.189,2.063c.387-.258.774-1.16,1.032-2.192h1.547v9.284h-1.676c-.516-3.739-2.579-6.834-6.834-6.834s-4.255,1.289-4.255,3.224,1.676,3.224,5.416,4.9l4.384,2.192c3.739,1.805,5.287,4.771,5.287,7.092,0,5.029-4.384,8.51-9.671,8.51h0v.258ZM885.568,395.787c-3.224,0-5.931-1.676-7.092-2.708-.387.387-1.16,1.547-1.289,2.708h-1.547v-10.96h1.547c.645,5.158,4.255,8.252,8.897,8.252s4.642-1.418,4.642-3.739-1.805-3.61-5.029-5.158l-4.513-2.192c-3.224-1.547-5.545-4.126-5.545-7.608s3.61-7.092,8.51-7.092,4.771.903,6.189,2.063c.387-.258.774-1.16,1.032-2.192h1.547v9.284h-1.676c-.516-3.739-2.579-6.834-6.834-6.834s-4.255,1.289-4.255,3.224,1.676,3.224,5.416,4.9l4.384,2.192c3.739,1.805,5.287,4.771,5.287,7.092,0,5.029-4.384,8.51-9.671,8.51h0v.258Z"/>
        <path class="cls-11" d="M744.247,368.451h-14.184v1.547c4.384,0,5.158.903,5.158,6.576v10.058c0,5.673-.774,6.705-5.158,6.705-3.353-.516-5.673-2.321-8.897-5.802l-3.61-3.997c4.9-.903,7.479-3.997,7.479-7.479s-3.739-7.608-10.702-7.608h-13.926v1.547c4.384,0,5.158.903,5.158,6.576v10.058c0,5.673-.774,6.705-5.158,6.705v1.547h15.731v-1.547c-4.384,0-5.158-1.032-5.158-6.705v-2.837h1.289l8.768,10.96h22.952c11.347,0,16.247-6.06,16.247-13.152s-4.9-13.152-16.247-13.152h.258ZM711.109,381.346v-10.573h3.224c3.61,0,5.158,2.45,5.158,5.287s-1.547,5.158-5.158,5.158h-3.224v.129ZM744.505,392.306h-.516c-2.837,0-3.224-.774-3.224-4.384v-17.149h3.739c8.252,0,9.671,6.06,9.671,10.702s-1.547,10.831-9.671,10.831ZM656.566,384.311l5.416-16.118c1.547-4.642.903-6.06-4.126-6.06v-1.547h14.828v1.547c-5.029,0-6.189,1.16-8.123,6.963l-9.026,27.078h-1.032l-8.123-24.757-8.252,24.757h-1.032l-8.768-27.078c-1.934-5.802-3.224-6.963-7.737-6.963v-1.547h17.536v1.547c-4.642,0-5.931,1.16-4.255,6.06l5.287,16.118,7.994-23.725h1.547l7.865,23.725h0ZM683.386,395.787c-8.639,0-15.86-6.447-15.86-14.184s7.092-14.184,15.86-14.184,15.86,6.447,15.86,14.184-7.092,14.184-15.86,14.184ZM683.386,369.87c-7.221,0-9.8,6.576-9.8,11.734s2.579,11.734,9.8,11.734,9.929-6.447,9.929-11.734-2.579-11.734-9.929-11.734Z"/>
      </g>
    </g>
    <g id="Internet_375-5" data-name="Internet 375">
      <path id="SASS" class="cls-10" d="M1184.044,118.081c-5.657.032-10.554,1.39-14.662,3.413-1.516-3.002-3.034-5.624-3.285-7.583-.285-2.275-.632-3.666-.285-6.383.347-2.718,1.928-6.572,1.928-6.889-.032-.285-.348-1.675-3.603-1.706s-6.067.632-6.383,1.485-.948,2.812-1.359,4.834c-.569,2.971-6.509,13.493-9.89,19.023-1.106-2.148-2.054-4.045-2.244-5.561-.284-2.275-.632-3.666-.284-6.383.348-2.718,1.928-6.572,1.928-6.888-.032-.285-.348-1.675-3.601-1.706-3.255-.032-6.067.632-6.383,1.485s-.664,2.875-1.359,4.834c-.664,1.959-8.563,19.528-10.617,24.11-1.043,2.338-1.959,4.202-2.623,5.467-.664,1.264-.032.095-.095.222-.569,1.074-.885,1.675-.885,1.675v.032c-.442.79-.917,1.549-1.137,1.549-.159,0-.475-2.117.063-5.024,1.17-6.099,4.013-15.61,3.982-15.957,0-.159.536-1.834-1.834-2.686-2.307-.854-3.128.569-3.318.569s-.348.505-.348.505c0,0,2.56-10.711-4.897-10.711-4.677,0-11.123,5.087-14.314,9.733-2.022,1.106-6.319,3.444-10.87,5.94-1.738.948-3.539,1.959-5.245,2.875l-.347-.38c-9.038-9.637-25.752-16.463-25.057-29.418.253-4.708,1.895-17.126,32.104-32.167,24.742-12.323,44.554-8.942,47.998-1.422,4.897,10.743-10.585,30.714-36.306,33.59-9.796,1.106-14.947-2.686-16.242-4.108-1.359-1.485-1.549-1.549-2.054-1.264-.821.442-.316,1.769,0,2.56.758,1.991,3.919,5.53,9.29,7.299,4.708,1.549,16.211,2.401,30.113-2.971,15.578-6.036,27.743-22.783,24.173-36.781-3.635-14.255-27.271-18.931-49.611-11-13.303,4.74-27.712,12.133-38.077,21.835-12.323,11.5-14.283,21.549-13.462,25.72,2.875,14.883,23.382,24.584,31.599,31.756-.411.22-.79.442-1.137.632-4.108,2.022-19.749,10.206-23.667,18.864-4.424,9.796.695,16.842,4.108,17.79,10.554,2.939,21.361-2.338,27.207-11.028,5.814-8.689,5.119-19.971,2.433-25.121l-.095-.19,3.224-1.895c2.086-1.233,4.14-2.37,5.94-3.35-1.011,2.749-1.738,6.004-2.117,10.743-.442,5.561,1.832,12.765,4.834,15.61,1.327,1.231,2.908,1.264,3.886,1.264,3.476,0,5.056-2.875,6.794-6.319,2.148-4.202,4.045-9.069,4.045-9.069,0,0-2.37,13.177,4.108,13.177,2.37,0,4.74-3.065,5.814-4.645v.032s.063-.095.19-.316c.133-.196.259-.396.379-.6v-.063c.948-1.643,3.065-5.404,6.225-11.628,4.076-8.025,7.994-18.074,7.994-18.074,0,0,.379,2.464,1.549,6.509.695,2.402,2.211,5.024,3.381,7.583-.948,1.327-1.516,2.086-1.516,2.086l.032.032c-.758,1.011-1.612,2.086-2.496,3.16-3.224,3.855-7.078,8.247-7.583,9.512-.601,1.485-.475,2.59.695,3.476.854.632,2.37.758,3.982.632,2.908-.19,4.929-.917,5.94-1.359,1.58-.569,3.381-1.422,5.119-2.686,3.16-2.338,5.087-5.655,4.897-10.079-.095-2.433-.885-4.834-1.865-7.11.285-.411.569-.821.854-1.264,4.993-7.299,8.848-15.325,8.848-15.325,0,0,.379,2.464,1.549,6.509.6,2.054,1.801,4.298,2.875,6.509-4.677,3.823-7.615,8.247-8.626,11.155-1.865,5.372-.411,7.805,2.338,8.374,1.231.253,3.002-.316,4.329-.885,1.643-.538,3.634-1.454,5.467-2.812,3.16-2.338,6.193-5.594,6.036-9.985-.095-2.022-.632-4.013-1.359-5.909,3.982-1.643,9.132-2.59,15.673-1.801,14.061,1.643,16.842,10.428,16.305,14.093-.538,3.666-3.476,5.688-4.456,6.319-.98.601-1.296.821-1.2,1.264.126.664.569.632,1.422.505,1.17-.19,7.394-3.002,7.646-9.764.379-8.691-7.868-18.171-22.498-18.076h0l-.003-.003ZM1075.598,154.64c-4.645,5.087-11.186,7.014-13.967,5.372-3.002-1.738-1.834-9.227,3.886-14.63,3.476-3.287,7.994-6.319,10.965-8.184.664-.411,1.675-1.011,2.875-1.738.19-.126.316-.19.316-.19.222-.126.475-.285.727-.442,2.117,7.709.095,14.473-4.803,19.812h0ZM1109.567,131.541c-1.612,3.95-5.024,14.093-7.078,13.525-1.77-.475-2.844-8.153-.348-15.736,1.264-3.823,3.95-8.374,5.53-10.144,2.56-2.844,5.34-3.792,6.036-2.623.821,1.518-3.128,12.514-4.139,14.978h-.001ZM1137.595,144.94c-.695.348-1.327.601-1.612.411-.222-.126.284-.601.284-.601,0,0,3.507-3.76,4.897-5.498.79-1.011,1.738-2.18,2.749-3.507v.379c0,4.55-4.361,7.583-6.319,8.816h.001ZM1159.207,140.01c-.505-.379-.442-1.549,1.264-5.213.664-1.453,2.18-3.886,4.803-6.193.316.948.505,1.865.475,2.718-.031,5.688-4.076,7.805-6.541,8.689h0Z"/>
    </g>
    <g id="Internet_375-6" data-name="Internet 375">
      <g id="HTML">
        <path class="cls-7" d="M1439.661,296.454c-.561-.611-1.356-.962-2.187-.962h-115.664c-2.492,0-4.884,1.053-6.567,2.893-1.683,1.84-2.522,4.312-2.3,6.793l9.847,111.624c.324,3.648,2.905,6.769,6.425,7.775l44.738,12.785c.801.226,1.623.342,2.445.342s1.647-.116,2.445-.342l44.738-12.785c3.52-1.006,6.102-4.131,6.425-7.778l10.42-118.079c.077-.828-.202-1.653-.766-2.267h.001ZM1424.098,416.274c-.11,1.238-.949,2.255-2.143,2.594l-44.738,12.785c-.534.157-1.101.157-1.635,0l-44.738-12.785c-1.19-.338-2.033-1.356-2.143-2.59l-9.846-111.622c-.075-.839.196-1.644.768-2.264.57-.623,1.345-.964,2.187-.964h112.422l-10.135,114.847Z"/>
        <path class="cls-5" d="M1336.4,414.283l39.188,11.197c.267.075.54.112.814.112s.549-.039.814-.112l39.188-11.197c1.181-.338,2.036-1.371,2.143-2.594l8.92-101.097c.071-.828-.205-1.653-.768-2.267-.561-.611-1.356-.962-2.187-.962h-96.217c-.83,0-1.626.351-2.187.962-.561.614-.839,1.436-.768,2.267l8.918,101.097c.107,1.222.958,2.255,2.143,2.594ZM1421.27,313.298l-8.457,95.839-36.411,10.404-36.413-10.404-8.452-95.839h89.734Z"/>
        <path class="cls-4" d="M1405.072,341.614l.727-8.903c.071-.866-.611-1.605-1.478-1.605h-55.867c-.857,0-1.534.725-1.48,1.578l2.071,32.644c.048.78.698,1.389,1.48,1.389h38.331c.857,0,1.537.727,1.48,1.582l-.798,12.052c-.039.597-.433,1.113-1.001,1.306l-11.818,4.036c-.312.107-.647.107-.958,0l-11.827-4.038c-.563-.193-.955-.7-1.001-1.293l-.472-6.334c-.057-.775-.703-1.375-1.48-1.375h-9.939c-.86,0-1.541.73-1.48,1.587l1.11,15.785c.041.602.445,1.115,1.015,1.306l24.083,7.926c.303.098.627.098.928,0l24.077-7.924c.576-.19.98-.712,1.017-1.318l2.098-33.595c.053-.855-.623-1.576-1.48-1.576h-39.651c-.771,0-1.416-.593-1.478-1.362l-.727-8.903c-.068-.866.611-1.605,1.48-1.605h41.557c.771,0,1.416-.593,1.478-1.362h.001Z"/>
      </g>
    </g>
    <g id="Internet_375-7" data-name="Internet 375">
      <g id="JS">
        <path class="cls-3" d="M512.113,139.691c-.239,0-.475-.034-.703-.095l-48.293-13.612c-1.032-.293-1.781-1.193-1.88-2.26l-11.019-120.894c-.064-.726.177-1.447.669-1.983.49-.539,1.185-.846,1.914-.846h118.948c.726,0,1.418.303,1.908.841.49.534.736,1.249.674,1.975l-10.372,120.893c-.09,1.079-.848,1.988-1.89,2.277l-49.265,13.612c-.228.062-.459.093-.692.093h.001ZM466.242,121.477l45.878,12.93,46.829-12.938,9.972-116.283h-113.279l10.599,116.291Z"/>
        <path class="cls-1" d="M512.437,12.964v114.087l39.542-10.372,9.724-103.715s-49.265,0-49.265,0ZM552.302,61.257l-2.917,38.244-32.411,8.103v-13.612l23.336-6.482.324-11.344-23.985,3.565V28.522h37.921l-.972,13.936-24.957.324v21.067l23.66-2.593h.001Z"/>
        <polygon class="cls-2" points="472.571 98.205 472.571 83.944 495.907 90.426 495.907 28.522 507.251 28.522 507.251 107.929 472.571 98.205"/>
      </g>
    </g>
  </g>
</svg>